<svg width="20" height="20" fill="none" xmlns="http://www.w3.org/2000/svg"><path d="M10.094 13.773c0 .104.08.188.176.188h4.335c.097 0 .176-.084.176-.188v-1.125c0-.103-.08-.187-.176-.187H10.27c-.097 0-.176.084-.176.187v1.125Zm-4.568.143 4.5-3.773a.189.189 0 0 0 0-.288l-4.5-3.771a.186.186 0 0 0-.307.143v1.47c0 .055.023.107.068.142L7.86 10l-2.573 2.16a.19.19 0 0 0-.068.144v1.47c0 .159.185.246.307.142ZM18.625.625H1.375a.75.75 0 0 0-.75.75v17.25c0 .415.335.75.75.75h17.25a.75.75 0 0 0 .75-.75V1.375a.75.75 0 0 0-.75-.75Zm-.938 17.063H2.313V2.313h15.376v15.374Z" fill="#0593FB"/></svg>